<?xml version="1.0" encoding="UTF-8" standalone="no"?>
<svg
   xmlns:svg="http://www.w3.org/2000/svg"
   xmlns="http://www.w3.org/2000/svg"
   viewBox="0 0 70 70">
  <g id="menu">
    <path
       d="m 10,15 50,0"
       style="stroke:#fff;stroke-width:4;stroke-linecap:round" />
    <path
       d="m 10,30 50,0"
       style="stroke:#fff;stroke-width:4;stroke-linecap:round" />
    <path
       d="m 10,45 50,0"
       style="stroke:#fff;stroke-width:4;stroke-linecap:round" />
  </g>
  <g id="add">
    <path
       d="m 35,10 0,50"
       style="stroke:#fff;stroke-width:6;stroke-linecap:round" />
    <path
       d="m 10,35 50,0"
       style="stroke:#fff;stroke-width:6;stroke-linecap:round" />
  </g>
  <g id="search">
    <path
       d="m 40,40 20,20"
       style="stroke:#fff;stroke-width:6;stroke-linecap:round" />
    <circle
       r="17.5"
       cy="27.5"
       cx="27.5"
       style="stroke:#fff;stroke-width:6;fill:none" />
  </g>
  <g id="adjust">
    <path
       id="path6030"
       d="m 10,35 50,0"
       style="stroke:#fff;stroke-width:6;stroke-linecap:round" />
    <path
       id="path6120"
       d="m 35,10 -10,10 7,0 0,30 -7,0 10,10 10,-10 -7,0 0,-30 7,0 z"
       style="fill:#fff;stroke:none" />
  </g>
  <g id="diff">
    <path
       d="M 35 5 A 30 30 0 0 0 5 35 A 30 30 0 0 0 35 65 A 30 30 0 0 0 65 35 A 30 30 0 0 0 35 5 z M 35 11 C 37.197294 11 39 12.8027 39 15 L 39 31 L 55 31 A 4.0004 4.0004 0 1 1 55 39 L 39 39 L 39 55 C 39 57.1973 37.197294 59 35 59 C 32.802706 59 31 57.1973 31 55 L 31 39 L 15 39 A 4.0004 4.0004 0 1 1 15 31 L 31 31 L 31 15 C 31 12.8027 32.802706 11 35 11 z M 35 13 C 33.883586 13 33 13.88358 33 15 L 33 31 L 37 31 L 37 15 C 37 13.88358 36.116414 13 35 13 z M 33 39 L 33 55 C 33 56.1164 33.883586 57 35 57 C 36.116414 57 37 56.1164 37 55 L 37 39 L 33 39 z "
       style="fill:#fff;stroke:none" />
  </g>
  <g id="account">
    <path
       d="M 35,6 C 35,6 25,5.5754238 25,18.277344 25,30.575444 30,30 30,30 c 0,0 0.947079,6.447628 0.02344,7.861328 -1.244193,1.9043 -10.458985,3.201172 -10.458985,3.201172 -3,0 -6.745863,2.991291 -8.515625,5.837891 C 8.5004121,50.999491 8,65 8,65 l 54,0 C 62,65 61.499588,50.999491 58.951172,46.900391 57.18141,44.053791 53.435547,41.0625 50.435547,41.0625 c 0,0 -9.214793,-1.296872 -10.458985,-3.201172 C 39.052922,36.447628 40,30 40,30 40,30 45,30.575444 45,18.277344 45,5.5754238 35,6 35,6 Z"
       style="fill:#fff;stroke:none" />
  </g>
  <g id="settings">
    <path
       d="m 19.732476,7.84112 0.889591,6.99777 -5.784195,5.78345 -6.9970097,-0.8895 -2.840814,6.8583 5.5766017,4.3187 5.49e-4,8.1795 -5.5771978,4.3191 2.8411185,6.8591 6.9977563,-0.8897 5.78342,5.7842 -0.889497,6.9971 6.858332,2.8409 4.318664,-5.5767 8.179539,-5e-4 4.319124,5.5772 6.859066,-2.8412 -0.889591,-6.9978 5.784195,-5.7833 6.99701,0.8894 2.840814,-6.8583 -5.576602,-4.3187 -5.49e-4,-8.1795 5.577198,-4.3191 -2.841119,-6.8591 -6.997756,0.8897 -5.78342,-5.78424 0.889497,-6.99704 -6.858332,-2.84081 -4.318664,5.5766 -8.179539,5.4e-4 -4.319124,-5.57719 -6.859066,2.84112 z m 9.348528,12.86922 a 15.467081,15.467081 0 0 1 20.208715,8.3706 15.467081,15.467081 0 0 1 -8.370723,20.2088 15.467081,15.467081 0 0 1 -20.208715,-8.3707 15.467081,15.467081 0 0 1 8.370723,-20.2087 z"
       style="fill:#fff;stroke:none" />
  </g>
</svg>
