<?xml version="1.0" encoding="UTF-8" standalone="no"?>
<svg
   xmlns:dc="http://purl.org/dc/elements/1.1/"
   xmlns:cc="http://creativecommons.org/ns#"
   xmlns:rdf="http://www.w3.org/1999/02/22-rdf-syntax-ns#"
   xmlns:svg="http://www.w3.org/2000/svg"
   xmlns="http://www.w3.org/2000/svg"
   version="1.1"
   id="svg5462"
   viewBox="0 0 70.000001 70.000001"
   height="70"
   width="70">
  <defs
     id="defs5464">
    <marker
       style="overflow:visible"
       id="Arrow1Lstart"
       refX="0.0"
       refY="0.0"
       orient="auto">
      <path
         transform="scale(0.8) translate(12.5,0)"
         style="fill-rule:evenodd;stroke:#000000;stroke-width:1pt;stroke-opacity:1;fill:#000000;fill-opacity:1"
         d="M 0.0,0.0 L 5.0,-5.0 L -12.5,0.0 L 5.0,5.0 L 0.0,0.0 z "
         id="path4828" />
    </marker>
  </defs>
  <metadata
     id="metadata5467">
    <rdf:RDF>
      <cc:Work
         rdf:about="">
        <dc:format>image/svg+xml</dc:format>
        <dc:type
           rdf:resource="http://purl.org/dc/dcmitype/StillImage" />
        <dc:title></dc:title>
      </cc:Work>
    </rdf:RDF>
  </metadata>
  <g id="settings">
    <path
       d="m 19.732476,7.84112 0.889591,6.99777 -5.784195,5.78345 -6.9970097,-0.8895 -2.840814,6.8583 5.5766017,4.3187 5.49e-4,8.1795 -5.5771978,4.3191 2.8411185,6.8591 6.9977563,-0.8897 5.78342,5.7842 -0.889497,6.9971 6.858332,2.8409 4.318664,-5.5767 8.179539,-5e-4 4.319124,5.5772 6.859066,-2.8412 -0.889591,-6.9978 5.784195,-5.7833 6.99701,0.8894 2.840814,-6.8583 -5.576602,-4.3187 -5.49e-4,-8.1795 5.577198,-4.3191 -2.841119,-6.8591 -6.997756,0.8897 -5.78342,-5.78424 0.889497,-6.99704 -6.858332,-2.84081 -4.318664,5.5766 -8.179539,5.4e-4 -4.319124,-5.57719 -6.859066,2.84112 z m 9.348528,12.86922 a 15.467081,15.467081 0 0 1 20.208715,8.3706 15.467081,15.467081 0 0 1 -8.370723,20.2088 15.467081,15.467081 0 0 1 -20.208715,-8.3707 15.467081,15.467081 0 0 1 8.370723,-20.2087 z"
       style="fill:#fff;stroke:none" />
  </g>
</svg>
